<svg preserveAspectRatio="none" width="100%" height="100%" overflow="visible" style="display: block;" viewBox="0 0 52 52" fill="none" xmlns="http://www.w3.org/2000/svg">
<g id="ToteSimple" clip-path="url(#clip0_19258_41763)">
<g id="Vector">
</g>
<path id="Vector_2" d="M42.5898 42.25H9.41141C9.01199 42.2501 8.62633 42.1041 8.32704 41.8396C8.02775 41.5751 7.83547 41.2103 7.78641 40.8139L4.89188 16.4389C4.86511 16.2102 4.88725 15.9784 4.95683 15.7589C5.02642 15.5394 5.14186 15.3372 5.29552 15.1657C5.44917 14.9942 5.63752 14.8573 5.84808 14.7641C6.05864 14.6709 6.28661 14.6235 6.51688 14.625H45.4844C45.7146 14.6235 45.9426 14.6709 46.1532 14.7641C46.3637 14.8573 46.5521 14.9942 46.7057 15.1657C46.8594 15.3372 46.9748 15.5394 47.0444 15.7589C47.114 15.9784 47.1362 16.2102 47.1094 16.4389L44.2148 40.8139C44.1658 41.2103 43.9735 41.5751 43.6742 41.8396C43.3749 42.1041 42.9893 42.2501 42.5898 42.25Z" stroke="var(--stroke-0, black)" stroke-width="3.25" stroke-linecap="round" stroke-linejoin="round"/>
<path id="Vector_3" d="M17.875 14.625V13C17.875 10.8451 18.731 8.77849 20.2548 7.25476C21.7785 5.73102 23.8451 4.875 26 4.875C28.1549 4.875 30.2215 5.73102 31.7452 7.25476C33.269 8.77849 34.125 10.8451 34.125 13V14.625" stroke="var(--stroke-0, black)" stroke-width="3.25" stroke-linecap="round" stroke-linejoin="round"/>
</g>
<defs>
<clipPath id="clip0_19258_41763">
<rect width="52" height="52" fill="white"/>
</clipPath>
</defs>
</svg>
