<svg preserveAspectRatio="none" width="100%" height="100%" overflow="visible" style="display: block;" viewBox="0 0 24 25" fill="none" xmlns="http://www.w3.org/2000/svg">
<g id="Icon">
<path id="Vector" d="M11.1328 23.1406C10.5703 23.0156 10.0508 22.793 9.57422 22.4727C9.09766 22.1523 8.70312 21.7578 8.39062 21.2891C8.125 20.8984 7.93359 20.4766 7.81641 20.0234C7.69922 19.5703 7.64062 19.0312 7.64062 18.4062V17.9141L5.46094 17.8672L5.20312 17.75C5.04688 17.6719 4.90234 17.5703 4.76953 17.4453C4.63672 17.3203 4.53125 17.1797 4.45312 17.0234L4.33594 16.7891V3.64062L4.45312 3.38281C4.53125 3.22656 4.64453 3.07422 4.79297 2.92578C4.94141 2.77734 5.10156 2.67188 5.27344 2.60938L5.50781 2.51562H18.5156L18.7266 2.60938C18.8984 2.67188 19.0586 2.77734 19.207 2.92578C19.3555 3.07422 19.4688 3.22656 19.5469 3.38281L19.6641 3.64062L19.6875 10.1328C19.6875 13.7422 19.6797 15.7812 19.6641 16.25C19.6484 16.7188 19.5625 17.0547 19.4062 17.2578C19.3281 17.3672 19.2383 17.4648 19.1367 17.5508C19.0352 17.6367 18.9219 17.7109 18.7969 17.7734H18.7734L18.5391 17.8672L16.3594 17.9141V18.4297C16.3594 19.0391 16.3008 19.5703 16.1836 20.0234C16.0664 20.4766 15.875 20.8984 15.6094 21.2891C15.3125 21.7266 14.9531 22.0977 14.5312 22.4023C14.1094 22.707 13.6406 22.9297 13.125 23.0703L13.1016 23.0938C12.8203 23.1563 12.4883 23.1953 12.1055 23.2109C11.7227 23.2266 11.3984 23.2031 11.1328 23.1406ZM12.75 21.6406C13.125 21.5469 13.4805 21.3555 13.8164 21.0664C14.1523 20.7773 14.4062 20.4453 14.5781 20.0703C14.6875 19.8672 14.7578 19.6562 14.7891 19.4375C14.8203 19.2188 14.8359 18.9219 14.8359 18.5469V17.8906H9.16406V18.5469C9.16406 18.75 9.16797 18.9336 9.17578 19.0977C9.18359 19.2617 9.20312 19.3906 9.23438 19.4844C9.35938 20.0625 9.62891 20.5508 10.043 20.9492C10.457 21.3477 10.9531 21.5938 11.5312 21.6875H11.5547C11.6172 21.7031 11.6836 21.7109 11.7539 21.7109C11.8242 21.7109 11.8906 21.7109 11.9531 21.7109C12.0938 21.7109 12.2344 21.7031 12.375 21.6875C12.5156 21.6719 12.6484 21.6563 12.7734 21.6406H12.75ZM7.64062 14.6562V12.9453H9.16406V16.3672H14.8359V12.9453H16.3594V16.3672H18.2109V4.01562H5.8125V16.3672H7.64062V14.6562Z" fill="var(--fill-0, black)"/>
</g>
</svg>
