<svg preserveAspectRatio="none" width="100%" height="100%" overflow="visible" style="display: block;" viewBox="0 0 52 52" fill="none" xmlns="http://www.w3.org/2000/svg">
<g id="Users" clip-path="url(#clip0_19258_41738)">
<g id="Vector">
</g>
<path id="Vector_2" d="M17.0625 32.5C22.896 32.5 27.625 27.771 27.625 21.9375C27.625 16.104 22.896 11.375 17.0625 11.375C11.229 11.375 6.5 16.104 6.5 21.9375C6.5 27.771 11.229 32.5 17.0625 32.5Z" stroke="var(--stroke-0, black)" stroke-width="3.25" stroke-linecap="round" stroke-linejoin="round"/>
<path id="Vector_3" d="M2.07568 40.6253C3.69883 38.1296 5.91961 36.0789 8.53641 34.6592C11.1532 33.2396 14.0831 32.496 17.0602 32.496C20.0373 32.496 22.9672 33.2396 25.584 34.6592C28.2008 36.0789 30.4216 38.1296 32.0447 40.6253" stroke="var(--stroke-0, black)" stroke-width="3.25" stroke-linecap="round" stroke-linejoin="round"/>
<path id="Vector_4" d="M34.9375 32.5C37.9144 32.4983 40.8446 33.2406 43.4616 34.6596C46.0785 36.0786 48.2993 38.1292 49.922 40.625" stroke="var(--stroke-0, black)" stroke-width="3.25" stroke-linecap="round" stroke-linejoin="round"/>
<path id="Vector_5" d="M31.0146 12.1266C32.4595 11.5503 34.0138 11.3003 35.5665 11.3943C37.1192 11.4884 38.632 11.9243 39.9967 12.6708C41.3614 13.4173 42.5444 14.456 43.4611 15.7128C44.3778 16.9695 45.0056 18.4132 45.2997 19.9407C45.5938 21.4681 45.5469 23.0417 45.1623 24.549C44.7777 26.0562 44.0649 27.4599 43.0749 28.6598C42.0849 29.8596 40.8421 30.826 39.4354 31.4898C38.0286 32.1537 36.4925 32.4986 34.937 32.5" stroke="var(--stroke-0, black)" stroke-width="3.25" stroke-linecap="round" stroke-linejoin="round"/>
</g>
<defs>
<clipPath id="clip0_19258_41738">
<rect width="52" height="52" fill="white"/>
</clipPath>
</defs>
</svg>
