<svg preserveAspectRatio="none" width="100%" height="100%" overflow="visible" style="display: block;" viewBox="0 0 23.04 24" fill="none" xmlns="http://www.w3.org/2000/svg">
<g id="Icon">
<path id="Vector" d="M10.5514 21.0677C10.5364 21.0677 10.4914 21.064 10.4164 21.0565C10.3414 21.049 10.2589 21.0377 10.1689 21.0227C9.8839 20.9777 9.6139 20.9177 9.3589 20.8427C9.1039 20.7677 8.8564 20.6852 8.6164 20.5952L8.6614 20.6177C8.0014 20.3477 7.3939 20.0027 6.8389 19.5827C6.2839 19.1627 5.80015 18.679 5.38765 18.1315C4.97515 17.584 4.6414 16.9877 4.3864 16.3427C4.1314 15.6977 3.9664 15.0152 3.8914 14.2952C3.8014 13.5002 3.8389 12.7202 4.0039 11.9552C4.1539 11.1902 4.4164 10.474 4.7914 9.80648C5.1664 9.13898 5.6314 8.53523 6.1864 7.99523C6.7414 7.44023 7.3714 6.99023 8.0764 6.64523C9.0214 6.19523 10.0151 5.94773 11.0576 5.90273C12.1001 5.85773 13.1014 6.03023 14.0614 6.42023C14.2864 6.51023 14.4776 6.59273 14.6351 6.66773C14.7926 6.74273 14.9389 6.82523 15.0739 6.91523C15.1339 6.94523 15.1751 6.96398 15.1976 6.97148C15.2201 6.97898 15.2314 6.97523 15.2314 6.96023C15.2314 6.94523 15.4264 6.73523 15.8164 6.33023C16.2064 5.92523 16.6714 5.44523 17.2114 4.89023L19.2139 2.86523L19.6639 3.33773C19.7989 3.45773 19.9114 3.56648 20.0014 3.66398C20.0914 3.76148 20.1364 3.81773 20.1364 3.83273C20.1364 3.84773 20.0614 3.93023 19.9114 4.08023C19.7614 4.23023 19.5889 4.40273 19.3939 4.59773C19.0789 4.91273 18.7676 5.22773 18.4601 5.54273C18.1526 5.85773 17.8414 6.17273 17.5264 6.48773L17.4814 6.55523L16.2889 7.77023L16.6039 8.08523C17.0389 8.52023 17.4139 9.00023 17.7289 9.52523C18.0439 10.0352 18.2914 10.5715 18.4714 11.134C18.6514 11.6965 18.7714 12.2777 18.8314 12.8777C18.8764 13.4627 18.8539 14.0627 18.7639 14.6777C18.6439 15.3977 18.4414 16.0727 18.1564 16.7027C17.8564 17.3477 17.4851 17.929 17.0426 18.4465C16.6001 18.964 16.0939 19.4252 15.5239 19.8302C14.9539 20.2202 14.3389 20.5277 13.6789 20.7527H13.6114C13.2514 20.8727 12.9251 20.9552 12.6326 21.0002C12.3401 21.0452 11.9614 21.0752 11.4964 21.0902C11.4364 21.0902 11.3726 21.0902 11.3051 21.0902C11.2376 21.0902 11.1664 21.0902 11.0914 21.0902C11.0014 21.0902 10.9114 21.0902 10.8214 21.0902C10.7314 21.0902 10.6339 21.0827 10.5289 21.0677H10.5739H10.5514ZM12.2389 19.6952C12.9139 19.5902 13.5439 19.3877 14.1289 19.0877C14.7289 18.7727 15.2576 18.3827 15.7151 17.9177C16.1726 17.4527 16.5514 16.9202 16.8514 16.3202C17.1514 15.7202 17.3464 15.0752 17.4364 14.3852C17.4664 14.1602 17.4814 13.8527 17.4814 13.4627C17.4814 13.0727 17.4664 12.7727 17.4364 12.5627C17.3164 11.8727 17.1176 11.2465 16.8401 10.684C16.5626 10.1215 16.1914 9.60023 15.7264 9.12023C14.9164 8.28023 13.9451 7.71773 12.8126 7.43273C11.6801 7.14773 10.5664 7.18523 9.4714 7.54523C8.7964 7.77023 8.1889 8.08898 7.6489 8.50148C7.1089 8.91398 6.6514 9.39773 6.2764 9.95273V9.97523C6.0064 10.3652 5.7889 10.7702 5.6239 11.1902C5.4589 11.6102 5.3389 12.0677 5.2639 12.5627C5.2339 12.7577 5.2189 13.069 5.2189 13.4965C5.2189 13.924 5.2339 14.2352 5.2639 14.4302C5.3689 15.1202 5.5714 15.7577 5.8714 16.3427C6.1714 16.9427 6.54265 17.4715 6.98515 17.929C7.42765 18.3865 7.9414 18.7652 8.5264 19.0652C9.0964 19.3802 9.7189 19.5902 10.3939 19.6952C10.6039 19.7252 10.9076 19.7402 11.3051 19.7402C11.7026 19.7402 12.0139 19.7252 12.2389 19.6952Z" fill="var(--fill-0, black)"/>
</g>
</svg>
