<svg preserveAspectRatio="none" width="100%" height="100%" overflow="visible" style="display: block;" viewBox="0 0 24 25" fill="none" xmlns="http://www.w3.org/2000/svg">
<g id="Icon">
<path id="Vector" d="M9.25781 10.4375C8.58594 10.4375 7.95313 10.3125 7.35938 10.0625C6.76563 9.8125 6.25 9.46484 5.8125 9.01953C5.375 8.57422 5.03125 8.05469 4.78125 7.46094C4.51563 6.88281 4.38281 6.25781 4.38281 5.58594V3.00781H3V5.58594C3 6.44531 3.16406 7.25781 3.49219 8.02344C3.82031 8.77344 4.26953 9.43359 4.83984 10.0039C5.41016 10.5742 6.07031 11.0234 6.82031 11.3516C7.58594 11.6797 8.39844 11.8438 9.25781 11.8438H14.7422C15.6016 11.8438 16.4141 11.6797 17.1797 11.3516C17.9297 11.0234 18.5898 10.5742 19.1602 10.0039C19.7305 9.43359 20.1797 8.77344 20.5078 8.02344C20.8359 7.25781 21 6.44531 21 5.58594V3.00781H19.6172V5.58594C19.6172 6.25781 19.4844 6.88281 19.2188 7.46094C18.9688 8.05469 18.625 8.57422 18.1875 9.01953C17.75 9.46484 17.2344 9.8125 16.6406 10.0625C16.0469 10.3125 15.4141 10.4375 14.7422 10.4375H9.25781ZM12 14.3516C11.0938 14.3516 10.332 14.6602 9.71484 15.2773C9.09766 15.8945 8.78906 16.625 8.78906 17.4688C8.78906 18.3281 9.09766 19.0664 9.71484 19.6836C10.332 20.3008 11.0938 20.6094 12 20.6094C12.9063 20.6094 13.668 20.3008 14.2852 19.6836C14.9023 19.0664 15.2109 18.3281 15.2109 17.4688C15.2109 16.625 14.9023 15.8945 14.2852 15.2773C13.668 14.6602 12.9063 14.3516 12 14.3516ZM12 12.9453C12.6406 12.9453 13.2422 13.0625 13.8047 13.2969C14.3516 13.5469 14.8359 13.875 15.2578 14.2812C15.6797 14.6875 16.0078 15.1641 16.2422 15.7109C16.4922 16.2578 16.6172 16.8438 16.6172 17.4688C16.6172 18.0937 16.4922 18.6797 16.2422 19.2266C16.0078 19.7891 15.6797 20.2734 15.2578 20.6797C14.8359 21.0859 14.3516 21.4062 13.8047 21.6406C13.2422 21.875 12.6406 21.9922 12 21.9922C11.3594 21.9922 10.7578 21.875 10.1953 21.6406C9.64844 21.4062 9.16406 21.0859 8.74219 20.6797C8.32031 20.2734 7.99219 19.7891 7.75781 19.2266C7.50781 18.6797 7.38281 18.0937 7.38281 17.4688C7.38281 16.8438 7.50781 16.2578 7.75781 15.7109C7.99219 15.1641 8.32031 14.6875 8.74219 14.2812C9.16406 13.875 9.64844 13.5469 10.1953 13.2969C10.7578 13.0625 11.3594 12.9453 12 12.9453Z" fill="var(--fill-0, black)"/>
</g>
</svg>
